HIERARCHY
ROOT Hips
{
	OFFSET 0.00000 0.00000 0.00000
	CHANNELS 6 Xposition Yposition Zposition Zrotation Yrotation Xrotation 
	JOINT LHipJoint
	{
		OFFSET 0 0 0
		CHANNELS 3 Zrotation Yrotation Xrotation
		JOINT LeftHip
		{
			OFFSET 1.78158 -1.79992 1.25746
			CHANNELS 3 Zrotation Yrotation Xrotation
			JOINT LeftKnee
			{
				OFFSET 2.48433 -6.82566 0.00000
				CHANNELS 3 Zrotation Yrotation Xrotation
				JOINT LeftAnkle
				{
					OFFSET 2.69722 -7.41057 0.00000
					CHANNELS 3 Zrotation Yrotation Xrotation
					JOINT LeftToe
					{
						OFFSET 0.10733 -0.29489 1.75071
						CHANNELS 3 Zrotation Yrotation Xrotation
						End Site
						{
							OFFSET 0.00000 -0.00000 0.90224
						}
					}
				}
			}
		}
	}
	JOINT RHipJoint
	{
		OFFSET 0 0 0
		CHANNELS 3 Zrotation Yrotation Xrotation
		JOINT RightHip
		{
			OFFSET -1.91234 -1.79993 1.25746
			CHANNELS 3 Zrotation Yrotation Xrotation
			JOINT RightKnee
			{
				OFFSET -2.33122 -6.40498 0.00000
				CHANNELS 3 Zrotation Yrotation Xrotation
				JOINT RightAnkle
				{
					OFFSET -2.75667 -7.57390 0.00000
					CHANNELS 3 Zrotation Yrotation Xrotation
					JOINT RightToe
					{
						OFFSET -0.15946 -0.43811 1.78925
						CHANNELS 3 Zrotation Yrotation Xrotation
						End Site
						{
							OFFSET -0.00000 -0.00000 0.93158
						}
					}
				}
			}
		}
	}
	JOINT lowerback
	{
		OFFSET 0 0 0
		CHANNELS 3 Zrotation Yrotation Xrotation
		JOINT Chest
		{
			OFFSET -0.02267 2.03993 -0.26238
			CHANNELS 3 Zrotation Yrotation Xrotation
			JOINT Chest2
			{
				OFFSET 0.02263 2.06220 -0.00892
				CHANNELS 3 Zrotation Yrotation Xrotation
				JOINT lowerneck
				{
					OFFSET 0 0 0
					CHANNELS 3 Zrotation Yrotation Xrotation
					JOINT Neck
					{
						OFFSET -0.06177 1.95978 0.28606
						CHANNELS 3 Zrotation Yrotation Xrotation
						JOINT Head
						{
							OFFSET 0.08482 1.96576 -0.43252
							CHANNELS 3 Zrotation Yrotation Xrotation
							End Site
							{
								OFFSET 0.02787 2.02739 -0.18071
							}
						}
					}
				}
				JOINT LeftCollar
				{
					OFFSET 0 0 0
					CHANNELS 3 Zrotation Yrotation Xrotation
					JOINT LeftShoulder
					{
						OFFSET 3.80978 1.64906 0.29973
CHANNELS 3 Zrotation Xrotation Yrotation
						JOINT LeftElbow
						{
OFFSET 0 -4.930420 0.000000
CHANNELS 3 Zrotation Xrotation Yrotation
							JOINT LeftWrist
							{
OFFSET 0 -3.681770 0.000000
CHANNELS 3 Zrotation Xrotation Yrotation
								JOINT lhand
								{
									OFFSET 0 0 0
CHANNELS 3 Zrotation Xrotation Yrotation
									JOINT LFingers
									{
OFFSET 0 -0.721480 0.000000
CHANNELS 3 Zrotation Xrotation Yrotation
										End Site
										{
OFFSET 0 -0.581680 0.000000
										}
									}
								}
								JOINT LThumb
								{
OFFSET 0 0.000000 0.000000
CHANNELS 3 Zrotation Xrotation Yrotation
									End Site
									{
OFFSET 0 -0.590560 0.590560
									}
								}
							}
						}
					}
				}
				JOINT RightCollar
				{
					OFFSET 0 0 0
					CHANNELS 3 Zrotation Yrotation Xrotation
					JOINT RightShoulder
					{
						OFFSET -3.49270 1.85636 0.09297
CHANNELS 3 Zrotation Xrotation Yrotation
						JOINT RightElbow
						{
OFFSET 0 -5.079050 -0.000000
CHANNELS 3 Zrotation Xrotation Yrotation
							JOINT RightWrist
							{
OFFSET 0 -3.543940 0.000000
CHANNELS 3 Zrotation Xrotation Yrotation
								JOINT rhand
								{
									OFFSET 0 0 0
CHANNELS 3 Zrotation Xrotation Yrotation
									JOINT RFingers
									{
OFFSET 0 -0.681160 0.000000
CHANNELS 3 Zrotation Xrotation Yrotation
										End Site
										{
OFFSET 0 -0.549170 0.000000
										}
									}
								}
								JOINT RThumb
								{
OFFSET 0 0.000000 0.000000
CHANNELS 3 Zrotation Xrotation Yrotation
									End Site
									{
OFFSET 0 -0.557550 0.557550
									}
								}
							}
						}
					}
				}
			}
		}
	}
}
MOTION
Frames: 8
Frame Time: 0.008333333333333333
-9.765100 17.956900 -16.325000 -141.821000 88.542700 -138.881000 0.000000 0.000000 0.000000 -11.776300 -13.615200 -2.390300 1.144900 6.794400 19.107600 1.138300 -0.880500 -19.898800 0.387500 -3.997300 -11.069000 0.000000 0.000000 0.000000 14.724700 -6.173800 3.789200 0.000000 -0.000000 0.000000 0.121500 -10.943000 -13.606100 -0.083700 -1.866000 5.135300 0.665400 -0.256700 6.984400 1.279100 -0.198600 -2.011500 0.983100 -0.093600 -6.016800 -6.571100 -4.648600 -23.029800 4.113300 -5.129000 33.524700 1.933900 -2.145800 16.143000 -0.000000 0.000000 0.000000 -1.127600 5.233100 -22.331400 13.800800 -22.449200 2.751600 31.056300 -13.466000 -7.548400 0.000000 0.000000 0.000000 -7.125000 0.000000 0.000000 3.670700 38.748500 0.566200 -0.000000 0.000000 0.000000 -8.625100 8.248900 22.210700 -16.081100 -25.630500 -3.681000 -14.570200 24.535600 12.648100 0.000000 0.000000 0.000000 7.125000 0.000000 -0.000000 11.477900 42.742400 0.648600
-9.760104 17.957233 -16.325599 -142.351224 88.544565 -139.397902 0.000000 0.000000 0.000000 -11.784227 -13.588356 -2.411282 1.146299 6.798530 19.119790 1.139033 -0.942448 -19.887343 0.370581 -3.909507 -10.822206 0.000000 0.000000 0.000000 14.713909 -6.181127 3.783938 0.000000 0.000000 0.000000 0.126096 -10.972109 -13.570796 -0.075307 -1.769148 4.868123 0.667198 -0.237116 6.963684 1.273838 -0.172822 -2.019360 0.973375 -0.081011 -6.013536 -6.594147 -4.663921 -23.000291 4.138412 -5.153979 33.479071 1.942892 -2.156258 16.117355 0.000000 0.000000 0.000000 -1.094428 5.194799 -22.503390 13.867011 -22.544254 2.776979 31.064160 -13.570846 -7.536343 0.000000 0.000000 0.000000 -7.125000 0.000000 0.000000 3.677694 38.735111 0.568465 0.000000 0.000000 0.000000 -8.577473 8.261689 22.128835 -16.053590 -25.593198 -3.669077 -14.588918 24.572569 12.621855 0.000000 0.000000 0.000000 7.125000 0.000000 0.000000 11.455052 42.717821 0.654329
-9.755374 17.957400 -16.326099 -143.043571 88.545135 -140.080581 0.000000 0.000000 0.000000 -11.796173 -13.569784 -2.423295 1.147299 6.801464 19.128525 1.139865 -1.004695 -19.876650 0.350572 -3.803109 -10.523453 0.000000 0.000000 0.000000 14.699198 -6.193371 3.782928 0.000000 0.000000 0.000000 0.129762 -10.993909 -13.540476 -0.068708 -1.690733 4.651776 0.667502 -0.217134 6.946855 1.266250 -0.146777 -2.023998 0.962055 -0.068321 -6.009109 -6.611746 -4.679241 -22.977294 4.164388 -5.181118 33.440220 1.950988 -2.166583 16.096593 0.000000 0.000000 0.000000 -1.057435 5.152012 -22.681492 13.932857 -22.638610 2.802258 31.064014 -13.664462 -7.525915 0.000000 0.000000 0.000000 -7.125000 0.000000 0.000000 3.677678 38.722985 0.569534 0.000000 0.000000 0.000000 -8.525693 8.272552 22.038199 -16.031162 -25.562806 -3.659379 -14.607370 24.646282 12.676706 0.000000 0.000000 0.000000 7.125000 0.000000 0.000000 11.452005 42.774901 0.637765
-9.750911 17.957400 -16.326499 -143.898856 88.544402 -140.929871 0.000000 0.000000 0.000000 -11.812160 -13.559526 -2.426292 1.147898 6.803196 19.133787 1.140798 -1.067243 -19.866725 0.327458 -3.678014 -10.172480 0.000000 0.000000 0.000000 14.680547 -6.210557 3.786192 0.000000 0.000000 0.000000 0.132493 -11.008364 -13.515163 -0.063912 -1.630850 4.486514 0.666303 -0.196751 6.933932 1.256325 -0.120466 -2.025396 0.949132 -0.055532 -6.003514 -6.623870 -4.694562 -22.960841 4.191233 -5.210427 33.408180 1.958182 -2.176774 16.080740 0.000000 0.000000 0.000000 -1.016602 5.104719 -22.865738 13.998336 -22.732265 2.827437 31.055821 -13.746794 -7.517122 0.000000 0.000000 0.000000 -7.125000 0.000000 0.000000 3.670618 38.712127 0.569400 0.000000 0.000000 0.000000 -8.469740 8.281478 21.938749 -16.013843 -25.539359 -3.651919 -14.625554 24.756923 12.813058 0.000000 0.000000 0.000000 7.125000 0.000000 0.000000 11.468858 42.914051 0.598798
-9.746648 17.956736 -16.327032 -145.128222 88.541942 -142.165202 0.000000 0.000000 0.000000 -11.840771 -13.563885 -2.412679 1.148963 6.806124 19.142238 1.142328 -1.124741 -19.864109 0.306404 -3.557636 -9.835526 0.000000 0.000000 0.000000 14.650002 -6.238108 3.801216 0.000000 0.000000 0.000000 0.133430 -11.011656 -13.504203 -0.062106 -1.607644 4.422579 0.662180 -0.180753 6.931375 1.242347 -0.100533 -2.021546 0.934482 -0.045932 -5.998251 -6.615927 -4.704965 -22.959338 4.202529 -5.233755 33.397469 1.956672 -2.183710 16.076979 0.000000 0.000000 0.000000 -0.974507 5.059418 -23.050649 14.067070 -22.830505 2.854078 31.040119 -13.807132 -7.523744 0.000000 0.000000 0.000000 -7.125000 0.000000 0.000000 3.656913 38.718612 0.566742 0.000000 0.000000 0.000000 -8.419302 8.287679 21.861757 -16.004166 -25.526343 -3.647780 -14.669785 24.894208 13.053396 0.000000 0.000000 0.000000 7.125000 0.000000 0.000000 11.488767 43.160575 0.528934
-9.742384 17.955739 -16.327664 -146.459346 88.537923 -143.507609 0.000000 0.000000 0.000000 -11.874008 -13.571719 -2.392644 1.150260 6.809782 19.152946 1.144092 -1.176211 -19.865180 0.289420 -3.459119 -9.559891 0.000000 0.000000 0.000000 14.615494 -6.269718 3.821725 0.000000 0.000000 0.000000 0.133569 -11.011548 -13.501576 -0.061497 -1.599768 4.400879 0.658282 -0.168998 6.933306 1.228391 -0.086236 -2.016625 0.920390 -0.039084 -5.994311 -6.599042 -4.711555 -22.961939 4.201655 -5.250062 33.396166 1.949950 -2.188192 16.077447 0.000000 0.000000 0.000000 -0.935913 5.020469 -23.230008 14.138920 -22.932987 2.882044 31.027837 -13.861928 -7.541380 0.000000 0.000000 0.000000 -7.125000 0.000000 0.000000 3.646066 38.738064 0.563318 0.000000 0.000000 0.000000 -8.378133 8.292056 21.808324 -15.993978 -25.512561 -3.643386 -14.732526 25.019329 13.288045 0.000000 0.000000 0.000000 7.125000 0.000000 0.000000 11.491263 43.403436 0.459290
-9.738121 17.954407 -16.328396 -147.892815 88.532328 -144.957731 0.000000 0.000000 0.000000 -11.911910 -13.583043 -2.366133 1.151792 6.814178 19.165935 1.146090 -1.221573 -19.869976 0.276564 -3.382783 -9.346470 0.000000 0.000000 0.000000 14.576993 -6.305421 3.847769 0.000000 0.000000 0.000000 0.132903 -11.008018 -13.507371 -0.062097 -1.607362 4.421795 0.654618 -0.161537 6.939768 1.214470 -0.077643 -2.010630 0.906868 -0.035020 -5.991713 -6.573130 -4.714286 -22.968666 4.188466 -5.259254 33.404359 1.937960 -2.190190 16.082176 0.000000 0.000000 0.000000 -0.900876 4.987963 -23.403729 14.213924 -23.039765 2.911353 31.019044 -13.911153 -7.570156 0.000000 0.000000 0.000000 -7.125000 0.000000 0.000000 3.638140 38.770637 0.559121 0.000000 0.000000 0.000000 -8.346359 8.294587 21.778748 -15.983254 -25.497973 -3.638723 -14.813992 25.132035 13.516654 0.000000 0.000000 0.000000 7.125000 0.000000 0.000000 11.476076 43.642303 0.389948
-9.733792 17.952544 -16.329460 -149.234159 88.521033 -146.323681 0.000000 0.000000 0.000000 -11.950541 -13.595494 -2.333723 1.154385 6.821623 19.188004 1.148486 -1.252354 -19.883123 0.274379 -3.369211 -9.308351 0.000000 0.000000 0.000000 14.539155 -6.346626 3.883888 0.000000 0.000000 0.000000 0.130912 -10.999649 -13.528940 -0.064353 -1.636827 4.503089 0.657052 -0.164284 6.953784 1.205519 -0.081510 -2.005165 0.896660 -0.037253 -5.993953 -6.542049 -4.709462 -22.971749 4.155527 -5.251877 33.420638 1.920204 -2.187549 16.087767 0.000000 0.000000 0.000000 -0.880419 4.973219 -23.554453 14.294296 -23.153833 2.942849 31.027550 -13.964223 -7.616230 0.000000 0.000000 0.000000 -7.125000 0.000000 0.000000 3.645059 38.824683 0.555388 0.000000 0.000000 0.000000 -8.338910 8.289497 21.793048 -15.960136 -25.466551 -3.628758 -14.917660 25.189930 13.617216 0.000000 0.000000 0.000000 7.125000 0.000000 0.000000 11.408928 43.754978 0.355534
